# xmcd CD database file
#
# Track frame offsets:
#	183
#	18045
#	28708
#	41658
#	55333
#	69408
#	81683
#	94758
#	109470
#	122583
#
# Disc length: 1861 seconds
#
# Revision: 0
# Processed by: cddbd v1.5.2PL0 Copyright (c) Steve Scherf et al.
# Submitted via: CDex 1.70beta2
#
DISCID=8407430a
DTITLE=Vari - Una Rotonda Sul Mare 2
DYEAR=1995
DGENRE=Italian Revival
TTITLE0=Patty Pravo - La bambola (nuova versione)
TTITLE1=Nuovi Angeli - Donna felicità (nuova versione)
TTITLE2=Dino - Te lo leggo negli occhi (nuova versione)
TTITLE3=Piero Focaccia - Permette signora (nuova versione)
TTITLE4=Gino Santercole - Una carezza in un pugno (nuova versione)
TTITLE5=Carmen Villani - Bada Caterina (nuova versione)
TTITLE6=Nicola di Bari - Vagabondo (nuova versione)
TTITLE7=Ricky Maiocchi - Uno in più (nuova versione)
TTITLE8=Jimmy Fontana - La nostra favola (nuova versione)
TTITLE9=Luciano Rossi - Ammazzate oh (nuova versione)
EXTD=YEAR: 1995
EXTT0=
EXTT1=
EXTT2=
EXTT3=
EXTT4=
EXTT5=
EXTT6=
EXTT7=
EXTT8=
EXTT9=
PLAYORDER=
